{
    "asset": {
        "generator": "COLLADA2GLTF",
        "version": "2.0"
    },
    "scenes": [
        {
            "nodes": [
                0
            ]
        }
    ],
    "scene": 0,
    "nodes": [
        {
            "children": [
                15,
                1
            ],
            "matrix": [
                1.0,
                0.0,
                0.0,
                0.0,
                0.0,
                0.0,
                -1.0,
                0.0,
                0.0,
                1.0,
                0.0,
                0.0,
                0.0,
                0.0,
                0.0,
                1.0
            ],
            "name": "Z_UP"
        },
        {
            "mesh": 0,
            "skin": 0,
            "name": "Tentacool"
        },
        {
            "children": [
                9,
                3
            ],
            "matrix": [
                -0.000003728380534084863,
                1.0,
                0.0,
                0.0,
                -1.0,
                -0.000003728380534084863,
                0.0,
                0.0,
                0.0,
                0.0,
                1.0,
                0.0,
                0.0,
                1.416603684425354,
                0.07864322513341904,
                1.0
            ],
            "name": "_03_Waist"
        },
        {
            "children": [
                4
            ],
            "matrix": [
                -0.9977954626083374,
                0.06636456400156021,
                0.0,
                0.0,
                -0.06636456400156021,
                -0.9977954626083374,
                0.0,
                0.0,
                0.0,
                0.0,
                1.0,
                0.0,
                -0.04869489744305611,
                0.1882980465888977,
                0.11209273338317873,
                1.0
            ],
            "name": "_12_RFeeler1"
        },
        {
            "children": [
                5
            ],
            "matrix": [
                1.0,
                0.0,
                0.0,
                0.0,
                0.0,
                1.0,
                0.0,
                0.0,
                0.0,
                0.0,
                1.0,
                0.0,
                0.23182140290737153,
                2.180099727411289e-7,
                0.0,
                1.0
            ],
            "name": "_13_RFeeler2"
        },
        {
            "children": [
                6
            ],
            "matrix": [
                1.0,
                0.0,
                0.0,
                0.0,
                0.0,
                1.0,
                0.0,
                0.0,
                0.0,
                0.0,
                1.0,
                0.0,
                0.28063416481018069,
                -3.149040992411756e-7,
                0.0,
                1.0
            ],
            "name": "_14_RFeeler3"
        },
        {
            "children": [
                7
            ],
            "matrix": [
                0.9999834299087524,
                0.00004681535210693255,
                -0.005755187943577766,
                0.0,
                -0.00004681613063439727,
                1.0,
                1.3179522577455584e-11,
                0.0,
                0.005755187943577766,
                2.694224292554282e-7,
                0.9999834299087524,
                0.0,
                0.27522143721580508,
                -4.844669021508708e-8,
                0.0,
                1.0
            ],
            "name": "_15_RFeeler4"
        },
        {
            "children": [
                8
            ],
            "matrix": [
                0.9965363144874572,
                -0.0004428725515026599,
                -0.08315758407115936,
                0.0,
                0.0004446258535608649,
                0.9999998807907105,
                0.000002564834176155273,
                0.0,
                0.08315757662057877,
                -0.000039529961213702339,
                0.9965364336967468,
                0.0,
                0.2119886577129364,
                8.235924724431243e-7,
                8.478164659209143e-8,
                1.0
            ],
            "name": "_16_RFeeler5"
        },
        {
            "matrix": [
                0.9997996091842653,
                -4.661121748988917e-12,
                -0.02001933380961418,
                0.0,
                4.661121748988917e-12,
                1.0,
                -4.666095119879379e-14,
                0.0,
                0.02001933380961418,
                -4.666095119879379e-14,
                0.9997996091842653,
                0.0,
                0.19760163128376008,
                7.266990564858135e-8,
                -3.6334952824290677e-8,
                1.0
            ],
            "name": "_17_RFeeler6"
        },
        {
            "children": [
                10
            ],
            "matrix": [
                -0.997795581817627,
                -0.06636270880699158,
                -3.550762114890027e-15,
                0.0,
                0.06636270880699158,
                -0.997795581817627,
                1.179490996771449e-16,
                0.0,
                -3.550762114890027e-15,
                -1.179490996771449e-16,
                1.0,
                0.0,
                -0.04869403690099716,
                -0.1882980465888977,
                0.112092487514019,
                1.0
            ],
            "name": "_05_LFeeler1"
        },
        {
            "children": [
                11
            ],
            "matrix": [
                1.0,
                0.0,
                0.0,
                0.0,
                0.0,
                1.0,
                0.0,
                0.0,
                0.0,
                0.0,
                1.0,
                0.0,
                0.23182092607021333,
                -4.844669021508708e-8,
                0.0,
                1.0
            ],
            "name": "_06_LFeeler2"
        },
        {
            "children": [
                12
            ],
            "matrix": [
                1.0,
                0.0,
                0.0,
                0.0,
                0.0,
                1.0,
                0.0,
                0.0,
                0.0,
                0.0,
                1.0,
                0.0,
                0.28063467144966128,
                0.0,
                1.09004858472872e-7,
                1.0
            ],
            "name": "_07_LFeeler3"
        },
        {
            "children": [
                13
            ],
            "matrix": [
                0.9999834299087524,
                -0.00004672220165957697,
                -0.005755192134529352,
                0.0,
                0.00004672297654906288,
                1.0,
                1.7026008380938149e-10,
                0.0,
                0.005755192134529352,
                -2.690699716367817e-7,
                0.9999834299087524,
                0.0,
                0.27522170543670657,
                4.844669021508708e-8,
                1.332283403598922e-7,
                1.0
            ],
            "name": "_08_LFeeler4"
        },
        {
            "children": [
                14
            ],
            "matrix": [
                0.9965363144874572,
                0.0004426981322467327,
                -0.08315758407115936,
                0.0,
                -0.0004444350197445601,
                0.9999998807907105,
                -0.000002375604935878073,
                0.0,
                0.08315757662057877,
                0.0000393255177186802,
                0.9965364336967468,
                0.0,
                0.21198977530002598,
                0.0,
                -1.2111659231095473e-8,
                1.0
            ],
            "name": "_09_LFeeler5"
        },
        {
            "matrix": [
                0.9997996091842653,
                3.4814341631772559e-8,
                -0.02001933380961418,
                0.0,
                -3.2257631232823779e-8,
                1.0,
                1.280350545584952e-7,
                0.0,
                0.02001933380961418,
                -1.273636200949113e-7,
                0.9997996091842653,
                0.0,
                0.19760124385356904,
                -9.689338043017418e-8,
                -2.422331846219095e-8,
                1.0
            ],
            "name": "_10_LFeeler6"
        },
        {
            "children": [
                16
            ],
            "matrix": [
                1.0,
                -0.0,
                0.0,
                0.0,
                0.0,
                4.4896641959724089e-11,
                1.0,
                0.0,
                -0.0,
                -1.0,
                4.4896641959724089e-11,
                0.0,
                0.0,
                0.0,
                0.0,
                1.0
            ],
            "name": "_01_pm0072_00"
        },
        {
            "children": [
                2
            ],
            "name": "_02_Origin"
        }
    ],
    "meshes": [
        {
            "primitives": [
                {
                    "attributes": {
                        "COLOR_0": 1,
                        "JOINTS_0": 2,
                        "NORMAL": 3,
                        "POSITION": 4,
                        "TEXCOORD_0": 5,
                        "WEIGHTS_0": 6
                    },
                    "indices": 0,
                    "mode": 4,
                    "material": 0
                },
                {
                    "attributes": {
                        "COLOR_0": 8,
                        "JOINTS_0": 9,
                        "NORMAL": 10,
                        "POSITION": 11,
                        "TEXCOORD_0": 12,
                        "WEIGHTS_0": 13
                    },
                    "indices": 7,
                    "mode": 4,
                    "material": 1
                }
            ],
            "name": "Tentacool"
        }
    ],
    "skins": [
        {
            "inverseBindMatrices": 14,
            "skeleton": 2,
            "joints": [
                2,
                11,
                12,
                13,
                14,
                10,
                9,
                5,
                6,
                7,
                8,
                4,
                3
            ],
            "name": "geom-Tentacool-skin1"
        }
    ],
    "accessors": [
        {
            "bufferView": 0,
            "byteOffset": 0,
            "componentType": 5123,
            "count": 13134,
            "max": [
                2586
            ],
            "min": [
                0
            ],
            "type": "SCALAR"
        },
        {
            "bufferView": 1,
            "byteOffset": 0,
            "componentType": 5126,
            "count": 2587,
            "max": [
                1.0,
                1.0,
                1.0
            ],
            "min": [
                1.0,
                1.0,
                1.0
            ],
            "type": "VEC3"
        },
        {
            "bufferView": 2,
            "byteOffset": 0,
            "componentType": 5123,
            "count": 2587,
            "max": [
                10,
                12,
                12,
                12
            ],
            "min": [
                0,
                0,
                0,
                0
            ],
            "type": "VEC4"
        },
        {
            "bufferView": 1,
            "byteOffset": 31044,
            "componentType": 5126,
            "count": 2587,
            "max": [
                0.9968482255935668,
                0.9975793957710266,
                0.9999982118606569
            ],
            "min": [
                -0.9968482255935668,
                -0.9999359846115112,
                -0.9999939203262328
            ],
            "type": "VEC3"
        },
        {
            "bufferView": 1,
            "byteOffset": 62088,
            "componentType": 5126,
            "count": 2587,
            "max": [
                0.5003012418746948,
                2.280353546142578,
                0.4956606924533844
            ],
            "min": [
                -0.5003012418746948,
                -0.02560167759656906,
                -0.4846777319908142
            ],
            "type": "VEC3"
        },
        {
            "bufferView": 2,
            "byteOffset": 20696,
            "componentType": 5126,
            "count": 2587,
            "max": [
                0.9983357191085817,
                0.9946144223213196
            ],
            "min": [
                0.0,
                0.005639970302581787
            ],
            "type": "VEC2"
        },
        {
            "bufferView": 3,
            "byteOffset": 0,
            "componentType": 5126,
            "count": 2587,
            "max": [
                1.0,
                0.9900000095367432,
                0.9100000262260436,
                0.20000000298023225
            ],
            "min": [
                0.009999999776482582,
                0.0,
                0.0,
                0.0
            ],
            "type": "VEC4"
        },
        {
            "bufferView": 0,
            "byteOffset": 26268,
            "componentType": 5123,
            "count": 330,
            "max": [
                75
            ],
            "min": [
                0
            ],
            "type": "SCALAR"
        },
        {
            "bufferView": 1,
            "byteOffset": 93132,
            "componentType": 5126,
            "count": 76,
            "max": [
                1.0,
                1.0,
                1.0
            ],
            "min": [
                1.0,
                1.0,
                1.0
            ],
            "type": "VEC3"
        },
        {
            "bufferView": 2,
            "byteOffset": 41392,
            "componentType": 5123,
            "count": 76,
            "max": [
                0,
                0,
                0,
                0
            ],
            "min": [
                0,
                0,
                0,
                0
            ],
            "type": "VEC4"
        },
        {
            "bufferView": 1,
            "byteOffset": 94044,
            "componentType": 5126,
            "count": 76,
            "max": [
                0.8225470185279846,
                0.6983733773231506,
                0.9746224284172058
            ],
            "min": [
                -0.8225470185279846,
                -0.26437729597091677,
                0.23580990731716157
            ],
            "type": "VEC3"
        },
        {
            "bufferView": 1,
            "byteOffset": 94956,
            "componentType": 5126,
            "count": 76,
            "max": [
                0.2932988703250885,
                1.457103967666626,
                0.42091864347457888
            ],
            "min": [
                -0.2932988703250885,
                1.3530808687210084,
                0.2208460569381714
            ],
            "type": "VEC3"
        },
        {
            "bufferView": 2,
            "byteOffset": 42000,
            "componentType": 5126,
            "count": 76,
            "max": [
                1.564404010772705,
                -0.7697900533676148
            ],
            "min": [
                1.00531005859375,
                -0.9427100419998168
            ],
            "type": "VEC2"
        },
        {
            "bufferView": 3,
            "byteOffset": 41392,
            "componentType": 5126,
            "count": 76,
            "max": [
                1.0,
                0.0,
                0.0,
                0.0
            ],
            "min": [
                1.0,
                0.0,
                0.0,
                0.0
            ],
            "type": "VEC4"
        },
        {
            "bufferView": 4,
            "byteOffset": 0,
            "componentType": 5126,
            "count": 13,
            "max": [
                0.06649971008300781,
                0.9977989196777344,
                0.007264737971127033,
                0.0,
                1.0,
                0.06676405668258667,
                4.371139894487897e-8,
                0.0,
                4.3615052902623577e-8,
                3.146626568195643e-7,
                1.0,
                0.0,
                53.24401092529297,
                10.975859642028809,
                -3.0961899757385256,
                1.0
            ],
            "min": [
                -0.06649257987737656,
                -1.0,
                -0.007263890001922846,
                0.0,
                -0.997795820236206,
                -0.06675686687231064,
                -0.10857095569372176,
                0.0,
                -0.10881365835666657,
                -1.6844496997237005e-7,
                0.9940621256828308,
                0.0,
                -55.77180862426758,
                -10.976300239562989,
                -7.509290218353272,
                1.0
            ],
            "type": "MAT4"
        }
    ],
    "materials": [
        {
            "pbrMetallicRoughness": {
                "baseColorFactor": [
                    1.0,
                    1.0,
                    1.0,
                    1.0
                ],
                "baseColorTexture": {
                    "index": 0
                },
                "metallicFactor": 0.0
            },
            "emissiveFactor": [
                0.0,
                0.0,
                0.0
            ],
            "occlusionTexture": {
                "index": 0
            },
            "name": "BodyTattu00"
        },
        {
            "pbrMetallicRoughness": {
                "baseColorFactor": [
                    1.0,
                    1.0,
                    1.0,
                    1.0
                ],
                "baseColorTexture": {
                    "index": 1
                },
                "metallicFactor": 0.0
            },
            "emissiveFactor": [
                0.0,
                0.0,
                0.0
            ],
            "occlusionTexture": {
                "index": 1
            },
            "name": "Eye"
        }
    ],
    "textures": [
        {
            "sampler": 0,
            "source": 0
        },
        {
            "sampler": 0,
            "source": 1
        }
    ],
    "images": [
        {
            "uri": "pm0072_00_Body1.png"
        },
        {
            "uri": "pm0072_00_Eye1.png"
        }
    ],
    "samplers": [
        {
            "magFilter": 9729,
            "minFilter": 9986,
            "wrapS": 10497,
            "wrapT": 10497
        }
    ],
    "bufferViews": [
        {
            "buffer": 0,
            "byteOffset": 181916,
            "byteLength": 26928,
            "target": 34963
        },
        {
            "buffer": 0,
            "byteOffset": 43440,
            "byteLength": 95868,
            "byteStride": 12,
            "target": 34962
        },
        {
            "buffer": 0,
            "byteOffset": 139308,
            "byteLength": 42608,
            "byteStride": 8,
            "target": 34962
        },
        {
            "buffer": 0,
            "byteOffset": 832,
            "byteLength": 42608,
            "byteStride": 16,
            "target": 34962
        },
        {
            "buffer": 0,
            "byteOffset": 0,
            "byteLength": 832
        }
    ],
    "buffers": [
        {
            "byteLength": 208844,
            "uri": "Tentacool0.bin"
        }
    ]
}
