{
    "asset": {
        "generator": "COLLADA2GLTF",
        "version": "2.0"
    },
    "scenes": [
        {
            "nodes": [
                0
            ]
        }
    ],
    "scene": 0,
    "nodes": [
        {
            "children": [
                16,
                1
            ],
            "matrix": [
                1.0,
                0.0,
                0.0,
                0.0,
                0.0,
                0.0,
                -1.0,
                0.0,
                0.0,
                1.0,
                0.0,
                0.0,
                0.0,
                0.0,
                0.0,
                1.0
            ],
            "name": "Z_UP"
        },
        {
            "mesh": 0,
            "skin": 0,
            "name": "Ekans"
        },
        {
            "children": [
                3
            ],
            "matrix": [
                -1.0,
                -8.979318677493353e-11,
                0.0,
                0.0,
                8.979318677493353e-11,
                -1.0,
                0.0,
                0.0,
                0.0,
                0.0,
                1.0,
                0.0,
                0.0,
                0.0,
                0.0,
                1.0
            ],
            "name": "Hips"
        },
        {
            "children": [
                4
            ],
            "matrix": [
                1.0,
                0.0,
                0.0,
                0.0,
                0.0,
                1.0,
                0.0,
                0.0,
                0.0,
                0.0,
                1.0,
                0.0,
                0.23106278479099277,
                0.0,
                0.0,
                1.0
            ],
            "name": "Tail1"
        },
        {
            "children": [
                5
            ],
            "matrix": [
                1.0,
                0.0,
                0.0,
                0.0,
                0.0,
                1.0,
                0.0,
                0.0,
                0.0,
                0.0,
                1.0,
                0.0,
                0.2500624656677246,
                0.0,
                0.0,
                1.0
            ],
            "name": "Tail2"
        },
        {
            "children": [
                6
            ],
            "matrix": [
                1.0,
                0.0,
                0.0,
                0.0,
                0.0,
                1.0,
                0.0,
                0.0,
                0.0,
                0.0,
                1.0,
                0.0,
                0.2560040354728699,
                0.0,
                0.0,
                1.0
            ],
            "name": "Tail3"
        },
        {
            "children": [
                7
            ],
            "matrix": [
                1.0,
                0.0,
                0.0,
                0.0,
                0.0,
                1.0,
                0.0,
                0.0,
                0.0,
                0.0,
                1.0,
                0.0,
                0.2560040354728699,
                0.0,
                0.0,
                1.0
            ],
            "name": "Tail4"
        },
        {
            "children": [
                8
            ],
            "matrix": [
                1.0,
                0.0,
                0.0,
                0.0,
                0.0,
                1.0,
                0.0,
                0.0,
                0.0,
                0.0,
                1.0,
                0.0,
                0.25515568256378176,
                0.0,
                0.0,
                1.0
            ],
            "name": "Tail5"
        },
        {
            "children": [
                9
            ],
            "matrix": [
                1.0,
                0.0,
                0.0,
                0.0,
                0.0,
                1.0,
                0.0,
                0.0,
                0.0,
                0.0,
                1.0,
                0.0,
                0.2568524181842804,
                0.0,
                0.0,
                1.0
            ],
            "name": "Tail6"
        },
        {
            "children": [
                10
            ],
            "matrix": [
                1.0,
                0.0,
                0.0,
                0.0,
                0.0,
                1.0,
                0.0,
                0.0,
                0.0,
                0.0,
                1.0,
                0.0,
                0.25260883569717409,
                0.0,
                0.0,
                1.0
            ],
            "name": "Tail7"
        },
        {
            "children": [
                11
            ],
            "matrix": [
                1.0,
                0.0,
                0.0,
                0.0,
                0.0,
                1.0,
                0.0,
                0.0,
                0.0,
                0.0,
                1.0,
                0.0,
                0.25515568256378176,
                0.0,
                0.0,
                1.0
            ],
            "name": "Tail8"
        },
        {
            "children": [
                12
            ],
            "matrix": [
                1.0,
                0.0,
                0.0,
                0.0,
                0.0,
                1.0,
                0.0,
                0.0,
                0.0,
                0.0,
                1.0,
                0.0,
                0.2122025191783905,
                0.0,
                0.0,
                1.0
            ],
            "name": "Tail9"
        },
        {
            "children": [
                13
            ],
            "matrix": [
                1.0,
                0.0,
                0.0,
                0.0,
                0.0,
                1.0,
                0.0,
                0.0,
                0.0,
                0.0,
                1.0,
                0.0,
                0.1713910698890686,
                0.0,
                0.0,
                1.0
            ],
            "name": "Tail10"
        },
        {
            "children": [
                14
            ],
            "matrix": [
                1.0,
                0.0,
                0.0,
                0.0,
                0.0,
                1.0,
                0.0,
                0.0,
                0.0,
                0.0,
                1.0,
                0.0,
                0.15883508324623109,
                0.0,
                0.0,
                1.0
            ],
            "name": "Tail11"
        },
        {
            "children": [
                15
            ],
            "matrix": [
                1.0,
                0.0,
                0.0,
                0.0,
                0.0,
                1.0,
                0.0,
                0.0,
                0.0,
                0.0,
                1.0,
                0.0,
                0.17677205801010133,
                0.0,
                0.0,
                1.0
            ],
            "name": "Tail12"
        },
        {
            "matrix": [
                1.0,
                0.0,
                0.0,
                0.0,
                0.0,
                1.0,
                0.0,
                0.0,
                0.0,
                0.0,
                1.0,
                0.0,
                0.13461999595165254,
                0.0,
                0.0,
                1.0
            ],
            "name": "Tail13"
        },
        {
            "children": [
                17
            ],
            "matrix": [
                1.0,
                0.0,
                0.0,
                0.0,
                0.0,
                4.4896641959724089e-11,
                1.0,
                0.0,
                0.0,
                -1.0,
                4.4896641959724089e-11,
                0.0,
                0.0,
                0.0,
                0.0,
                1.0
            ],
            "name": "pm0023_00"
        },
        {
            "children": [
                18
            ],
            "name": "Origin"
        },
        {
            "children": [
                2,
                19
            ],
            "matrix": [
                -0.0000034620645692484688,
                1.0,
                0.0,
                0.0,
                -1.0,
                -0.0000034620645692484688,
                0.0,
                0.0,
                0.0,
                0.0,
                1.0,
                0.0,
                0.0,
                0.0,
                0.0,
                1.0
            ],
            "name": "Waist"
        },
        {
            "children": [
                20
            ],
            "name": "Spine1"
        },
        {
            "children": [
                21
            ],
            "matrix": [
                1.0,
                0.0,
                0.0,
                0.0,
                0.0,
                1.0,
                0.0,
                0.0,
                0.0,
                0.0,
                1.0,
                0.0,
                0.27970731258392336,
                0.0,
                0.0,
                1.0
            ],
            "name": "Spine2"
        },
        {
            "children": [
                22
            ],
            "matrix": [
                1.0,
                0.0,
                0.0,
                0.0,
                0.0,
                1.0,
                0.0,
                0.0,
                0.0,
                0.0,
                1.0,
                0.0,
                0.2582748234272003,
                0.0,
                0.0,
                1.0
            ],
            "name": "Spine3"
        },
        {
            "children": [
                23
            ],
            "matrix": [
                1.0,
                0.0,
                0.0,
                0.0,
                0.0,
                1.0,
                0.0,
                0.0,
                0.0,
                0.0,
                1.0,
                0.0,
                0.254579097032547,
                0.0,
                0.0,
                1.0
            ],
            "name": "Spine4"
        },
        {
            "children": [
                24
            ],
            "matrix": [
                1.0,
                0.0,
                0.0,
                0.0,
                0.0,
                1.0,
                0.0,
                0.0,
                0.0,
                0.0,
                1.0,
                0.0,
                0.2557983100414276,
                0.0,
                0.0,
                1.0
            ],
            "name": "Spine5"
        },
        {
            "children": [
                25
            ],
            "matrix": [
                1.0,
                0.0,
                0.0,
                0.0,
                0.0,
                1.0,
                0.0,
                0.0,
                0.0,
                0.0,
                1.0,
                0.0,
                0.23986057937145234,
                0.0,
                0.0,
                1.0
            ],
            "name": "Spine6"
        },
        {
            "children": [
                26
            ],
            "matrix": [
                1.0,
                0.0,
                0.0,
                0.0,
                0.0,
                1.0,
                0.0,
                0.0,
                0.0,
                0.0,
                1.0,
                0.0,
                0.1892830729484558,
                0.0,
                0.0,
                1.0
            ],
            "name": "Spine7"
        },
        {
            "children": [
                27
            ],
            "matrix": [
                0.958977222442627,
                0.0,
                0.2834831178188324,
                0.0,
                0.0,
                1.0,
                0.0,
                0.0,
                -0.2834831178188324,
                0.0,
                0.958977222442627,
                0.0,
                0.182972714304924,
                -1.0160000130099435e-7,
                0.0,
                1.0
            ],
            "name": "Spine8"
        },
        {
            "children": [
                29,
                28
            ],
            "matrix": [
                0.8798277974128723,
                0.0,
                0.47529253363609316,
                0.0,
                0.0,
                1.0,
                0.0,
                0.0,
                -0.47529253363609316,
                0.0,
                0.8798277974128723,
                0.0,
                0.1574464738368988,
                0.0,
                -2.5400000325248585e-8,
                1.0
            ],
            "name": "Head"
        },
        {
            "matrix": [
                0.9573401808738709,
                0.0,
                0.2889632880687714,
                0.0,
                0.0,
                1.0,
                0.0,
                0.0,
                -0.2889632880687714,
                0.0,
                0.9573401808738709,
                0.0,
                0.1829742193222046,
                0.0,
                7.620000275210259e-8,
                1.0
            ],
            "name": "UpperJaw"
        },
        {
            "matrix": [
                0.6766518354415894,
                -3.6104688683202826e-11,
                0.7363031506538391,
                0.0,
                3.6104688683202826e-11,
                -1.0,
                -8.221476277547879e-11,
                0.0,
                0.7363031506538391,
                8.221476277547879e-11,
                -0.6766518354415894,
                0.0,
                0.14823591709136964,
                0.0,
                0.03277488797903061,
                1.0
            ],
            "name": "LowerJaw"
        }
    ],
    "meshes": [
        {
            "primitives": [
                {
                    "attributes": {
                        "JOINTS_0": 1,
                        "NORMAL": 2,
                        "POSITION": 3,
                        "TEXCOORD_0": 4,
                        "WEIGHTS_0": 5
                    },
                    "indices": 0,
                    "mode": 4,
                    "material": 0
                },
                {
                    "attributes": {
                        "JOINTS_0": 7,
                        "NORMAL": 8,
                        "POSITION": 9,
                        "TEXCOORD_0": 10,
                        "WEIGHTS_0": 11
                    },
                    "indices": 6,
                    "mode": 4,
                    "material": 1
                }
            ],
            "name": "Ekans"
        }
    ],
    "skins": [
        {
            "inverseBindMatrices": 12,
            "skeleton": 2,
            "joints": [
                2,
                3,
                4,
                5,
                6,
                7,
                8,
                9,
                10,
                11,
                12,
                13,
                14,
                15,
                19,
                20,
                21,
                22,
                23,
                24,
                25,
                26,
                27,
                29,
                28
            ],
            "name": "Ekans-mesh-skin"
        }
    ],
    "accessors": [
        {
            "bufferView": 0,
            "byteOffset": 0,
            "componentType": 5123,
            "count": 8406,
            "max": [
                1708
            ],
            "min": [
                0
            ],
            "type": "SCALAR"
        },
        {
            "bufferView": 1,
            "byteOffset": 0,
            "componentType": 5123,
            "count": 1709,
            "max": [
                24,
                24,
                24,
                13
            ],
            "min": [
                0,
                0,
                0,
                0
            ],
            "type": "VEC4"
        },
        {
            "bufferView": 2,
            "byteOffset": 0,
            "componentType": 5126,
            "count": 1709,
            "max": [
                1.0,
                1.0,
                1.0
            ],
            "min": [
                -1.0,
                -1.0,
                -1.0
            ],
            "type": "VEC3"
        },
        {
            "bufferView": 2,
            "byteOffset": 20508,
            "componentType": 5126,
            "count": 1709,
            "max": [
                0.14233067631721497,
                0.13992123305797578,
                2.0494978427886965
            ],
            "min": [
                -0.14233067631721497,
                -0.3312515616416931,
                -2.9229557514190676
            ],
            "type": "VEC3"
        },
        {
            "bufferView": 1,
            "byteOffset": 13672,
            "componentType": 5126,
            "count": 1709,
            "max": [
                0.9921879768371582,
                0.9829139709472656
            ],
            "min": [
                0.007813000120222569,
                0.006334006786346436
            ],
            "type": "VEC2"
        },
        {
            "bufferView": 3,
            "byteOffset": 0,
            "componentType": 5126,
            "count": 1709,
            "max": [
                1.0,
                0.9900000095367432,
                0.6800000071525574,
                0.03999999910593033
            ],
            "min": [
                0.009999999776482582,
                0.0,
                0.0,
                0.0
            ],
            "type": "VEC4"
        },
        {
            "bufferView": 0,
            "byteOffset": 16812,
            "componentType": 5123,
            "count": 348,
            "max": [
                73
            ],
            "min": [
                0
            ],
            "type": "SCALAR"
        },
        {
            "bufferView": 1,
            "byteOffset": 27344,
            "componentType": 5123,
            "count": 74,
            "max": [
                22,
                24,
                0,
                0
            ],
            "min": [
                22,
                24,
                0,
                0
            ],
            "type": "VEC4"
        },
        {
            "bufferView": 2,
            "byteOffset": 41016,
            "componentType": 5126,
            "count": 74,
            "max": [
                0.9961360096931458,
                0.6295530200004578,
                0.9411649703979492
            ],
            "min": [
                -0.9961360096931458,
                -0.5435810089111328,
                -0.07751800119876862
            ],
            "type": "VEC3"
        },
        {
            "bufferView": 2,
            "byteOffset": 41904,
            "componentType": 5126,
            "count": 74,
            "max": [
                0.13763116300106049,
                -0.099432110786438,
                2.008743524551392
            ],
            "min": [
                -0.13763116300106049,
                -0.1846897453069687,
                1.945805072784424
            ],
            "type": "VEC3"
        },
        {
            "bufferView": 1,
            "byteOffset": 27936,
            "componentType": 5126,
            "count": 74,
            "max": [
                0.49442997574806216,
                -0.7669299840927124
            ],
            "min": [
                0.005568999797105789,
                -0.9670898914337158
            ],
            "type": "VEC2"
        },
        {
            "bufferView": 3,
            "byteOffset": 27344,
            "componentType": 5126,
            "count": 74,
            "max": [
                0.8100000023841858,
                0.5799999833106995,
                0.0,
                0.0
            ],
            "min": [
                0.41999998688697817,
                0.1899999976158142,
                0.0,
                0.0
            ],
            "type": "VEC4"
        },
        {
            "bufferView": 4,
            "byteOffset": 0,
            "componentType": 5126,
            "count": 25,
            "max": [
                9.999999974752428e-7,
                1.0,
                0.000003000000106112566,
                0.0,
                0.0,
                0.0,
                -0.0395050011575222,
                0.0,
                1.0,
                0.0000019999999949504856,
                0.9992199540138244,
                0.0,
                0.0,
                0.0001140000022132881,
                64.00640106201172,
                1.0
            ],
            "min": [
                -0.000003000000106112566,
                -1.0,
                -0.0000019999999949504856,
                0.0,
                -0.9992199540138244,
                0.0,
                -1.0,
                0.0,
                -1.0,
                -0.000003000000106112566,
                -0.8800010085105896,
                0.0,
                -112.86300659179688,
                0.0,
                -74.75519561767578,
                1.0
            ],
            "type": "MAT4"
        }
    ],
    "materials": [
        {
            "pbrMetallicRoughness": {
                "baseColorFactor": [
                    1.0,
                    1.0,
                    1.0,
                    1.0
                ],
                "baseColorTexture": {
                    "index": 0
                },
                "metallicFactor": 0.0
            },
            "name": "Material__22"
        },
        {
            "pbrMetallicRoughness": {
                "baseColorFactor": [
                    1.0,
                    1.0,
                    1.0,
                    1.0
                ],
                "baseColorTexture": {
                    "index": 1
                },
                "metallicFactor": 0.0
            },
            "name": "Material__23"
        }
    ],
    "textures": [
        {
            "sampler": 0,
            "source": 0
        },
        {
            "sampler": 0,
            "source": 1
        }
    ],
    "images": [
        {
            "uri": "pm0023_00_Body1.png"
        },
        {
            "uri": "pm0023_00_Eye1.png"
        }
    ],
    "samplers": [
        {
            "magFilter": 9729,
            "minFilter": 9986,
            "wrapS": 10497,
            "wrapT": 10497
        }
    ],
    "bufferViews": [
        {
            "buffer": 0,
            "byteOffset": 101448,
            "byteLength": 17508,
            "target": 34963
        },
        {
            "buffer": 0,
            "byteOffset": 72920,
            "byteLength": 28528,
            "byteStride": 8,
            "target": 34962
        },
        {
            "buffer": 0,
            "byteOffset": 30128,
            "byteLength": 42792,
            "byteStride": 12,
            "target": 34962
        },
        {
            "buffer": 0,
            "byteOffset": 1600,
            "byteLength": 28528,
            "byteStride": 16,
            "target": 34962
        },
        {
            "buffer": 0,
            "byteOffset": 0,
            "byteLength": 1600
        }
    ],
    "buffers": [
        {
            "byteLength": 118956,
            "uri": "Ekans_ColladaMax0.bin"
        }
    ]
}
