{
    "asset": {
        "generator": "COLLADA2GLTF",
        "version": "2.0"
    },
    "scenes": [
        {
            "nodes": [
                0
            ]
        }
    ],
    "scene": 0,
    "nodes": [
        {
            "children": [
                17,
                1
            ],
            "matrix": [
                1.0,
                0.0,
                0.0,
                0.0,
                0.0,
                0.0,
                -1.0,
                0.0,
                0.0,
                1.0,
                0.0,
                0.0,
                0.0,
                0.0,
                0.0,
                1.0
            ],
            "name": "Z_UP"
        },
        {
            "mesh": 0,
            "skin": 0,
            "name": "vsn_mesh_0_Body"
        },
        {
            "children": [
                5,
                4,
                3
            ],
            "name": "pm0101_00"
        },
        {
            "name": "pm0101_00_IrisSkin"
        },
        {
            "name": "pm0101_00_BodySkin"
        },
        {
            "children": [
                6
            ],
            "name": "Origin"
        },
        {
            "children": [
                12,
                7
            ],
            "matrix": [
                1.0,
                0.0,
                0.0,
                0.0,
                0.0,
                1.0,
                0.0,
                0.0,
                0.0,
                0.0,
                1.0,
                0.0,
                0.0,
                60.0,
                0.0,
                1.0
            ],
            "name": "Waist"
        },
        {
            "children": [
                9,
                8
            ],
            "matrix": [
                1.0,
                0.0,
                0.0,
                0.0,
                0.0,
                1.0,
                0.0,
                0.0,
                0.0,
                0.0,
                1.0,
                0.0,
                -3.9652180671691896,
                17.53812026977539,
                57.57070922851563,
                1.0
            ],
            "name": "RFeeler"
        },
        {
            "matrix": [
                1.0,
                0.0,
                0.0,
                0.0,
                0.0,
                1.0,
                0.0,
                0.0,
                0.0,
                0.0,
                1.0,
                0.0,
                -0.000007629389983776491,
                0.000007629389983776491,
                0.0,
                1.0
            ],
            "name": "RFeelerB"
        },
        {
            "children": [
                10
            ],
            "matrix": [
                1.0,
                0.0,
                0.0,
                0.0,
                0.0,
                1.0,
                0.0,
                0.0,
                0.0,
                0.0,
                1.0,
                0.0,
                0.000003337860107421875,
                0.00001525879997643642,
                -0.00001907350088004023,
                1.0
            ],
            "name": "RFeelerA1"
        },
        {
            "children": [
                11
            ],
            "matrix": [
                1.0,
                0.0,
                9.536739753457368e-7,
                0.0,
                0.0,
                1.0,
                0.0,
                0.0,
                0.0,
                0.0,
                1.0,
                0.0,
                -11.455679893493653,
                10.928750038146973,
                -5.527233123779297,
                1.0
            ],
            "name": "RFeelerA2"
        },
        {
            "matrix": [
                1.0,
                0.0,
                -2.38419005427204e-7,
                0.0,
                0.0,
                1.0,
                0.0,
                0.0,
                0.0,
                0.0,
                1.0,
                0.0,
                -12.705010414123536,
                6.812538146972656,
                -5.2840352058410648,
                1.0
            ],
            "name": "RFeelerA3"
        },
        {
            "children": [
                14,
                13
            ],
            "matrix": [
                1.0,
                0.0,
                0.0,
                0.0,
                0.0,
                1.0,
                0.0,
                0.0,
                0.0,
                0.0,
                1.0,
                0.0,
                4.279867172241211,
                16.93724060058594,
                57.58409881591797,
                1.0
            ],
            "name": "LFeeler"
        },
        {
            "matrix": [
                1.0,
                0.0,
                0.0,
                0.0,
                3.725290076417309e-9,
                1.0,
                0.0,
                0.0,
                0.0,
                0.0,
                1.0,
                0.0,
                -0.000005722049991163658,
                -0.000007629389983776491,
                -0.000022888199964654633,
                1.0
            ],
            "name": "LFeelerB"
        },
        {
            "children": [
                15
            ],
            "matrix": [
                1.0,
                0.0,
                0.0,
                0.0,
                3.725290076417309e-9,
                1.0,
                0.0,
                0.0,
                0.0,
                0.0,
                1.0,
                0.0,
                -0.000005245210104476428,
                -0.000007629389983776491,
                0.000003814699994109105,
                1.0
            ],
            "name": "LFeelerA1"
        },
        {
            "children": [
                16
            ],
            "matrix": [
                1.0,
                0.0,
                0.0,
                0.0,
                -3.725290076417309e-9,
                1.0,
                0.0,
                0.0,
                0.0,
                0.0,
                1.0,
                0.0,
                11.088000297546389,
                11.467029571533204,
                -5.094886779785156,
                1.0
            ],
            "name": "LFeelerA2"
        },
        {
            "matrix": [
                0.9999998807907105,
                0.0,
                2.38419005427204e-7,
                0.0,
                0.0,
                1.0,
                0.0,
                0.0,
                0.0,
                0.0,
                1.0,
                0.0,
                12.408300399780274,
                7.287635803222656,
                -5.354790210723877,
                1.0
            ],
            "name": "LFeelerA3"
        },
        {
            "children": [
                2
            ],
            "matrix": [
                1.0,
                0.0,
                0.0,
                0.0,
                0.0,
                -1.629209975817503e-7,
                1.0,
                0.0,
                0.0,
                -1.0,
                -1.629209975817503e-7,
                0.0,
                0.0,
                0.0,
                0.0,
                1.0
            ],
            "name": "Armature"
        }
    ],
    "meshes": [
        {
            "primitives": [
                {
                    "attributes": {
                        "JOINTS_0": 1,
                        "NORMAL": 2,
                        "POSITION": 3,
                        "TEXCOORD_0": 4,
                        "WEIGHTS_0": 5
                    },
                    "indices": 0,
                    "mode": 4,
                    "material": 0
                },
                {
                    "attributes": {
                        "JOINTS_0": 7,
                        "NORMAL": 8,
                        "POSITION": 9,
                        "TEXCOORD_0": 10,
                        "WEIGHTS_0": 11
                    },
                    "indices": 6,
                    "mode": 4,
                    "material": 1
                },
                {
                    "attributes": {
                        "JOINTS_0": 13,
                        "NORMAL": 14,
                        "POSITION": 15,
                        "TEXCOORD_0": 16,
                        "WEIGHTS_0": 17
                    },
                    "indices": 12,
                    "mode": 4,
                    "material": 2
                }
            ],
            "name": "mesh_0_Body"
        }
    ],
    "skins": [
        {
            "inverseBindMatrices": 18,
            "skeleton": 2,
            "joints": [
                2,
                5,
                6,
                12,
                14,
                15,
                16,
                13,
                7,
                9,
                10,
                11,
                8,
                4,
                3
            ],
            "name": "Armature"
        }
    ],
    "accessors": [
        {
            "bufferView": 0,
            "byteOffset": 0,
            "componentType": 5123,
            "count": 7236,
            "max": [
                1450
            ],
            "min": [
                0
            ],
            "type": "SCALAR"
        },
        {
            "bufferView": 1,
            "byteOffset": 0,
            "componentType": 5123,
            "count": 1451,
            "max": [
                12,
                11,
                11,
                0
            ],
            "min": [
                2,
                0,
                0,
                0
            ],
            "type": "VEC4"
        },
        {
            "bufferView": 2,
            "byteOffset": 0,
            "componentType": 5126,
            "count": 1451,
            "max": [
                0.9989725947380066,
                1.0,
                0.9993066787719728
            ],
            "min": [
                -0.9989725947380066,
                -1.0,
                -0.9993066787719728
            ],
            "type": "VEC3"
        },
        {
            "bufferView": 2,
            "byteOffset": 17412,
            "componentType": 5126,
            "count": 1451,
            "max": [
                59.91508102416992,
                119.99960327148438,
                59.94401931762695
            ],
            "min": [
                -59.91511154174805,
                0.0,
                -59.94403839111328
            ],
            "type": "VEC3"
        },
        {
            "bufferView": 1,
            "byteOffset": 11608,
            "componentType": 5126,
            "count": 1451,
            "max": [
                0.9882810115814208,
                0.991519033908844
            ],
            "min": [
                0.01171898003667593,
                0.006159007549285889
            ],
            "type": "VEC2"
        },
        {
            "bufferView": 3,
            "byteOffset": 0,
            "componentType": 5126,
            "count": 1451,
            "max": [
                1.0,
                0.9882352948188782,
                0.6392157077789307,
                0.0
            ],
            "min": [
                0.01176469773054123,
                0.0,
                0.0,
                0.0
            ],
            "type": "VEC4"
        },
        {
            "bufferView": 0,
            "byteOffset": 14472,
            "componentType": 5123,
            "count": 300,
            "max": [
                65
            ],
            "min": [
                0
            ],
            "type": "SCALAR"
        },
        {
            "bufferView": 1,
            "byteOffset": 23216,
            "componentType": 5123,
            "count": 66,
            "max": [
                2,
                0,
                0,
                0
            ],
            "min": [
                2,
                0,
                0,
                0
            ],
            "type": "VEC4"
        },
        {
            "bufferView": 2,
            "byteOffset": 34824,
            "componentType": 5126,
            "count": 66,
            "max": [
                0.5921043753623962,
                -0.13568870723247529,
                0.9895570278167724
            ],
            "min": [
                -0.5921043753623962,
                -0.7443994283676148,
                0.5559998154640198
            ],
            "type": "VEC3"
        },
        {
            "bufferView": 2,
            "byteOffset": 35616,
            "componentType": 5126,
            "count": 66,
            "max": [
                35.86471939086914,
                52.62947845458985,
                59.481239318847659
            ],
            "min": [
                -35.86471939086914,
                15.438159942626954,
                33.114601135253909
            ],
            "type": "VEC3"
        },
        {
            "bufferView": 1,
            "byteOffset": 23744,
            "componentType": 5126,
            "count": 66,
            "max": [
                0.45694199204444888,
                -1.760786056518555
            ],
            "min": [
                0.04305797070264816,
                -1.9889938831329344
            ],
            "type": "VEC2"
        },
        {
            "bufferView": 3,
            "byteOffset": 23216,
            "componentType": 5126,
            "count": 66,
            "max": [
                1.0,
                0.0,
                0.0,
                0.0
            ],
            "min": [
                1.0,
                0.0,
                0.0,
                0.0
            ],
            "type": "VEC4"
        },
        {
            "bufferView": 0,
            "byteOffset": 15072,
            "componentType": 5123,
            "count": 192,
            "max": [
                49
            ],
            "min": [
                0
            ],
            "type": "SCALAR"
        },
        {
            "bufferView": 1,
            "byteOffset": 24272,
            "componentType": 5123,
            "count": 50,
            "max": [
                2,
                0,
                0,
                0
            ],
            "min": [
                2,
                0,
                0,
                0
            ],
            "type": "VEC4"
        },
        {
            "bufferView": 2,
            "byteOffset": 36408,
            "componentType": 5126,
            "count": 50,
            "max": [
                0.5956810712814331,
                0.5452541708946228,
                0.9888691902160645
            ],
            "min": [
                -0.5956810712814331,
                0.03442614898085594,
                0.6800395250320435
            ],
            "type": "VEC3"
        },
        {
            "bufferView": 2,
            "byteOffset": 37008,
            "componentType": 5126,
            "count": 50,
            "max": [
                35.98072814941406,
                92.85791778564452,
                59.30089950561524
            ],
            "min": [
                -35.98075103759766,
                61.40481185913086,
                40.32632827758789
            ],
            "type": "VEC3"
        },
        {
            "bufferView": 1,
            "byteOffset": 24672,
            "componentType": 5126,
            "count": 50,
            "max": [
                0.484266996383667,
                -0.7578129768371582
            ],
            "min": [
                0.01573299989104271,
                -0.9900360107421876
            ],
            "type": "VEC2"
        },
        {
            "bufferView": 3,
            "byteOffset": 24272,
            "componentType": 5126,
            "count": 50,
            "max": [
                1.0,
                0.0,
                0.0,
                0.0
            ],
            "min": [
                1.0,
                0.0,
                0.0,
                0.0
            ],
            "type": "VEC4"
        },
        {
            "bufferView": 4,
            "byteOffset": 0,
            "componentType": 5126,
            "count": 15,
            "max": [
                1.0,
                0.000001146450017586176,
                8.580699955018645e-7,
                0.0,
                0.0,
                1.0,
                4.371199935349068e-8,
                0.0,
                0.0,
                1.531900295503874e-8,
                1.0,
                0.0,
                28.12590980529785,
                0.0,
                0.0,
                1.0
            ],
            "min": [
                1.0,
                -0.000001146450017586176,
                -8.580699955018645e-7,
                0.0,
                0.0,
                1.0,
                -1.589300779869518e-8,
                0.0,
                0.0,
                -1.9613992208178389e-8,
                1.0,
                0.0,
                -27.776159286499025,
                -95.69190216064452,
                -57.584110260009769,
                1.0
            ],
            "type": "MAT4"
        }
    ],
    "materials": [
        {
            "pbrMetallicRoughness": {
                "baseColorTexture": {
                    "index": 0
                },
                "metallicFactor": 0.0
            },
            "emissiveFactor": [
                0.0,
                0.0,
                0.0
            ],
            "name": "Body_mat-effect"
        },
        {
            "pbrMetallicRoughness": {
                "baseColorTexture": {
                    "index": 1
                },
                "metallicFactor": 0.0
            },
            "emissiveFactor": [
                0.0,
                0.0,
                0.0
            ],
            "name": "Mouth_mat-effect"
        },
        {
            "pbrMetallicRoughness": {
                "baseColorTexture": {
                    "index": 2
                },
                "metallicFactor": 0.0
            },
            "emissiveFactor": [
                0.0,
                0.0,
                0.0
            ],
            "name": "Eye_mat-effect"
        }
    ],
    "textures": [
        {
            "sampler": 0,
            "source": 0
        },
        {
            "sampler": 0,
            "source": 1
        },
        {
            "sampler": 0,
            "source": 2
        }
    ],
    "images": [
        {
            "uri": "pm0101_00_Body1.png"
        },
        {
            "uri": "pm0101_00_Mouth1.tga.png"
        },
        {
            "uri": "pm0101_00_Eye1.png"
        }
    ],
    "samplers": [
        {
            "magFilter": 9729,
            "minFilter": 9986,
            "wrapS": 10497,
            "wrapT": 10497
        }
    ],
    "bufferViews": [
        {
            "buffer": 0,
            "byteOffset": 88712,
            "byteLength": 15456,
            "target": 34963
        },
        {
            "buffer": 0,
            "byteOffset": 63640,
            "byteLength": 25072,
            "byteStride": 8,
            "target": 34962
        },
        {
            "buffer": 0,
            "byteOffset": 26032,
            "byteLength": 37608,
            "byteStride": 12,
            "target": 34962
        },
        {
            "buffer": 0,
            "byteOffset": 960,
            "byteLength": 25072,
            "byteStride": 16,
            "target": 34962
        },
        {
            "buffer": 0,
            "byteOffset": 0,
            "byteLength": 960
        }
    ],
    "buffers": [
        {
            "byteLength": 104168,
            "uri": "Electrode0.bin"
        }
    ]
}
