{
    "asset": {
        "generator": "COLLADA2GLTF",
        "version": "2.0"
    },
    "scenes": [
        {
            "nodes": [
                0
            ]
        }
    ],
    "scene": 0,
    "nodes": [
        {
            "children": [
                2,
                15,
                1
            ],
            "name": "Y_UP"
        },
        {
            "mesh": 0,
            "skin": 0,
            "name": "vsn_mesh_1_pm0100_00_Skin"
        },
        {
            "children": [
                4,
                3
            ],
            "name": "pm0100_00"
        },
        {
            "name": "pm0100_00_Skin"
        },
        {
            "children": [
                5
            ],
            "name": "Origin"
        },
        {
            "children": [
                14,
                6
            ],
            "matrix": [
                -0.000003619989911385346,
                1.0,
                0.0,
                0.0,
                -1.0,
                -0.000003619989911385346,
                0.0,
                0.0,
                0.0,
                0.0,
                1.0,
                0.0,
                0.0,
                25.0,
                0.0,
                1.0
            ],
            "name": "Waist"
        },
        {
            "children": [
                13,
                11,
                9,
                7
            ],
            "matrix": [
                0.4269131124019623,
                0.0,
                0.9042927026748656,
                0.0,
                0.0,
                1.0,
                0.0,
                0.0,
                -0.9042927026748656,
                0.0,
                0.4269131124019623,
                0.0,
                0.0,
                0.0,
                0.0,
                1.0
            ],
            "name": "EyeRoot"
        },
        {
            "children": [
                8
            ],
            "name": "Eye3"
        },
        {
            "matrix": [
                1.0,
                0.0,
                0.0,
                0.0,
                0.0,
                1.0,
                0.0,
                0.0,
                0.0,
                0.0,
                1.0,
                0.0,
                27.63030052185059,
                0.0,
                0.0,
                1.0
            ],
            "name": "EndEye3"
        },
        {
            "children": [
                10
            ],
            "name": "Eye2"
        },
        {
            "matrix": [
                1.0,
                0.0,
                0.0,
                0.0,
                0.0,
                1.0,
                0.0,
                0.0,
                0.0,
                0.0,
                1.0,
                0.0,
                27.63030052185059,
                0.0,
                0.0,
                1.0
            ],
            "name": "EndEye2"
        },
        {
            "children": [
                12
            ],
            "name": "Eye1"
        },
        {
            "matrix": [
                1.0,
                0.0,
                0.0,
                0.0,
                0.0,
                1.0,
                0.0,
                0.0,
                0.0,
                0.0,
                1.0,
                0.0,
                27.63030052185059,
                0.0,
                0.0,
                1.0
            ],
            "name": "EndEye1"
        },
        {
            "matrix": [
                1.0,
                0.0,
                0.0,
                0.0,
                0.0,
                1.0,
                0.0,
                0.0,
                0.0,
                0.0,
                1.0,
                0.0,
                27.63030052185059,
                0.0,
                0.0,
                1.0
            ],
            "name": "EndEyeRoot"
        },
        {
            "matrix": [
                1.0,
                0.0,
                0.0,
                0.0,
                0.0,
                1.0,
                0.0,
                0.0,
                0.0,
                0.0,
                1.0,
                0.0,
                25.16279983520508,
                0.0,
                0.0,
                1.0
            ],
            "name": "EndWaist"
        },
        {
            "mesh": 1,
            "skin": 1,
            "name": "vsn_mesh_0_pm0100_00_Skin"
        }
    ],
    "meshes": [
        {
            "primitives": [
                {
                    "attributes": {
                        "JOINTS_0": 1,
                        "NORMAL": 2,
                        "POSITION": 3,
                        "TEXCOORD_0": 4,
                        "WEIGHTS_0": 5
                    },
                    "indices": 0,
                    "mode": 4,
                    "material": 0
                }
            ],
            "name": "mesh_1_pm0100_00_Skin"
        },
        {
            "primitives": [
                {
                    "attributes": {
                        "JOINTS_0": 7,
                        "NORMAL": 8,
                        "POSITION": 9,
                        "TEXCOORD_0": 10,
                        "WEIGHTS_0": 11
                    },
                    "indices": 6,
                    "mode": 4,
                    "material": 1
                }
            ],
            "name": "mesh_0_pm0100_00_Skin"
        }
    ],
    "skins": [
        {
            "inverseBindMatrices": 12,
            "skeleton": 2,
            "joints": [
                2,
                4,
                5,
                14,
                6,
                13,
                11,
                12,
                9,
                10,
                7,
                8,
                3
            ],
            "name": "mesh_1_pm0100_00_Skin_ctrl_id"
        },
        {
            "inverseBindMatrices": 13,
            "skeleton": 2,
            "joints": [
                2,
                4,
                5,
                14,
                6,
                13,
                11,
                12,
                9,
                10,
                7,
                8,
                3
            ],
            "name": "mesh_0_pm0100_00_Skin_ctrl_id"
        }
    ],
    "accessors": [
        {
            "bufferView": 0,
            "byteOffset": 0,
            "componentType": 5123,
            "count": 7110,
            "max": [
                1244
            ],
            "min": [
                0
            ],
            "type": "SCALAR"
        },
        {
            "bufferView": 1,
            "byteOffset": 0,
            "componentType": 5123,
            "count": 1245,
            "max": [
                2,
                6,
                8,
                10
            ],
            "min": [
                2,
                6,
                8,
                10
            ],
            "type": "VEC4"
        },
        {
            "bufferView": 2,
            "byteOffset": 0,
            "componentType": 5126,
            "count": 1245,
            "max": [
                0.7312859892845154,
                0.7261049747467041,
                0.9997770190238952
            ],
            "min": [
                -0.7312849760055542,
                -0.05120759829878807,
                0.5657830238342285
            ],
            "type": "VEC3"
        },
        {
            "bufferView": 2,
            "byteOffset": 14940,
            "componentType": 5126,
            "count": 1245,
            "max": [
                18.18939971923828,
                43.12049865722656,
                24.857200622558599
            ],
            "min": [
                -18.18939971923828,
                23.971500396728517,
                13.992899894714356
            ],
            "type": "VEC3"
        },
        {
            "bufferView": 1,
            "byteOffset": 9960,
            "componentType": 5126,
            "count": 1245,
            "max": [
                0.4872170090675354,
                -0.7552299499511719
            ],
            "min": [
                0.012783300131559372,
                -0.9953399896621704
            ],
            "type": "VEC2"
        },
        {
            "bufferView": 3,
            "byteOffset": 0,
            "componentType": 5126,
            "count": 1245,
            "max": [
                1.0,
                0.14000001549720765,
                0.15000002086162568,
                0.1599999964237213
            ],
            "min": [
                0.5699999928474426,
                0.0,
                0.0,
                0.0
            ],
            "type": "VEC4"
        },
        {
            "bufferView": 0,
            "byteOffset": 14220,
            "componentType": 5123,
            "count": 10212,
            "max": [
                1858
            ],
            "min": [
                0
            ],
            "type": "SCALAR"
        },
        {
            "bufferView": 1,
            "byteOffset": 19920,
            "componentType": 5123,
            "count": 1859,
            "max": [
                2,
                8,
                10,
                6
            ],
            "min": [
                2,
                8,
                10,
                6
            ],
            "type": "VEC4"
        },
        {
            "bufferView": 2,
            "byteOffset": 29880,
            "componentType": 5126,
            "count": 1859,
            "max": [
                0.9997000098228456,
                1.0,
                0.9994810223579408
            ],
            "min": [
                -0.9997000098228456,
                -1.0,
                -0.9996989965438844
            ],
            "type": "VEC3"
        },
        {
            "bufferView": 2,
            "byteOffset": 52188,
            "componentType": 5126,
            "count": 1859,
            "max": [
                24.847000122070314,
                49.942901611328128,
                24.846900939941408
            ],
            "min": [
                -24.847000122070314,
                0.0570698007941246,
                -24.846900939941408
            ],
            "type": "VEC3"
        },
        {
            "bufferView": 1,
            "byteOffset": 34792,
            "componentType": 5126,
            "count": 1859,
            "max": [
                0.9821180105209352,
                0.98820561170578
            ],
            "min": [
                0.017882000654935838,
                0.016770005226135259
            ],
            "type": "VEC2"
        },
        {
            "bufferView": 3,
            "byteOffset": 19920,
            "componentType": 5126,
            "count": 1859,
            "max": [
                1.0,
                0.03999999910593033,
                0.05999999865889549,
                0.09000000357627869
            ],
            "min": [
                0.8899999856948853,
                0.0,
                0.0,
                0.0
            ],
            "type": "VEC4"
        },
        {
            "bufferView": 4,
            "byteOffset": 0,
            "componentType": 5126,
            "count": 13,
            "max": [
                1.0,
                0.0,
                0.026682060211896898,
                0.0,
                1.0,
                1.0,
                0.0,
                0.0,
                0.9042927026748656,
                0.0,
                1.0,
                0.0,
                0.0,
                0.00009049975778907536,
                22.60732078552246,
                1.0
            ],
            "min": [
                0.0,
                -1.0,
                0.0,
                0.0,
                0.0,
                -0.000003619989911385346,
                -0.9042925834655762,
                0.0,
                0.0,
                0.0,
                0.42691299319267275,
                0.0,
                -50.16279983520508,
                0.0,
                0.0,
                1.0
            ],
            "type": "MAT4"
        },
        {
            "bufferView": 4,
            "byteOffset": 832,
            "componentType": 5126,
            "count": 13,
            "max": [
                1.0,
                0.0,
                0.026682060211896898,
                0.0,
                1.0,
                1.0,
                0.0,
                0.0,
                0.9042927026748656,
                0.0,
                1.0,
                0.0,
                0.0,
                0.00009049975778907536,
                22.60732078552246,
                1.0
            ],
            "min": [
                0.0,
                -1.0,
                0.0,
                0.0,
                0.0,
                -0.000003619989911385346,
                -0.9042925834655762,
                0.0,
                0.0,
                0.0,
                0.42691299319267275,
                0.0,
                -50.16279983520508,
                0.0,
                0.0,
                1.0
            ],
            "type": "MAT4"
        }
    ],
    "materials": [
        {
            "pbrMetallicRoughness": {
                "baseColorTexture": {
                    "index": 0
                },
                "metallicFactor": 0.0
            },
            "emissiveFactor": [
                0.0,
                0.0,
                0.0
            ],
            "name": "eff_Eye"
        },
        {
            "pbrMetallicRoughness": {
                "baseColorTexture": {
                    "index": 1
                },
                "metallicFactor": 0.0
            },
            "emissiveFactor": [
                0.0,
                0.0,
                0.0
            ],
            "name": "eff_BodySpc"
        }
    ],
    "textures": [
        {
            "sampler": 0,
            "source": 0
        },
        {
            "sampler": 0,
            "source": 1
        }
    ],
    "images": [
        {
            "uri": "pm0100_00_Eye1.png"
        },
        {
            "uri": "pm0100_00_Body1.png"
        }
    ],
    "samplers": [
        {
            "magFilter": 9729,
            "minFilter": 9986,
            "wrapS": 10497,
            "wrapT": 10497
        }
    ],
    "bufferViews": [
        {
            "buffer": 0,
            "byteOffset": 175488,
            "byteLength": 34644,
            "target": 34963
        },
        {
            "buffer": 0,
            "byteOffset": 125824,
            "byteLength": 49664,
            "byteStride": 8,
            "target": 34962
        },
        {
            "buffer": 0,
            "byteOffset": 51328,
            "byteLength": 74496,
            "byteStride": 12,
            "target": 34962
        },
        {
            "buffer": 0,
            "byteOffset": 1664,
            "byteLength": 49664,
            "byteStride": 16,
            "target": 34962
        },
        {
            "buffer": 0,
            "byteOffset": 0,
            "byteLength": 1664
        }
    ],
    "buffers": [
        {
            "byteLength": 210132,
            "uri": "pm0100_000.bin"
        }
    ]
}
