{
    "asset": {
        "generator": "COLLADA2GLTF",
        "version": "2.0"
    },
    "scenes": [
        {
            "nodes": [
                0
            ]
        }
    ],
    "scene": 0,
    "nodes": [
        {
            "children": [
                4,
                1
            ],
            "matrix": [
                1.0,
                0.0,
                0.0,
                0.0,
                0.0,
                0.0,
                -1.0,
                0.0,
                0.0,
                1.0,
                0.0,
                0.0,
                0.0,
                0.0,
                0.0,
                1.0
            ],
            "name": "Z_UP"
        },
        {
            "mesh": 0,
            "skin": 0,
            "name": "w_scattergun_reference_dmx"
        },
        {
            "children": [
                3
            ],
            "name": "weapon_bone"
        },
        {
            "matrix": [
                1.0,
                0.0,
                0.0,
                0.0,
                0.0,
                1.0,
                0.0,
                0.0,
                0.0,
                0.0,
                1.0,
                0.0,
                0.0,
                2.3702449798583986,
                3.7705230712890627,
                1.0
            ],
            "name": "weapon_bone_1"
        },
        {
            "children": [
                2
            ],
            "name": "w_scattergun_reference_dmx_skeleton"
        }
    ],
    "meshes": [
        {
            "primitives": [
                {
                    "attributes": {
                        "JOINTS_0": 1,
                        "NORMAL": 2,
                        "POSITION": 3,
                        "WEIGHTS_0": 4
                    },
                    "indices": 0,
                    "mode": 4,
                    "material": 0
                }
            ],
            "name": "w_scattergun_reference.dmx"
        }
    ],
    "skins": [
        {
            "inverseBindMatrices": 5,
            "skeleton": 2,
            "joints": [
                2,
                3
            ],
            "name": "w_scattergun_reference.dmx_skeleton"
        }
    ],
    "accessors": [
        {
            "bufferView": 0,
            "byteOffset": 0,
            "componentType": 5123,
            "count": 5133,
            "max": [
                1452
            ],
            "min": [
                0
            ],
            "type": "SCALAR"
        },
        {
            "bufferView": 1,
            "byteOffset": 0,
            "componentType": 5123,
            "count": 1453,
            "max": [
                1,
                0,
                0,
                0
            ],
            "min": [
                0,
                0,
                0,
                0
            ],
            "type": "VEC4"
        },
        {
            "bufferView": 2,
            "byteOffset": 0,
            "componentType": 5126,
            "count": 1453,
            "max": [
                1.0,
                0.9951781034469605,
                1.0
            ],
            "min": [
                -1.0,
                -0.997283935546875,
                -1.0
            ],
            "type": "VEC3"
        },
        {
            "bufferView": 2,
            "byteOffset": 17436,
            "componentType": 5126,
            "count": 1453,
            "max": [
                3.13518500328064,
                6.397793769836426,
                23.013580322265626
            ],
            "min": [
                -3.1455509662628176,
                -2.202244997024536,
                -6.619626998901367
            ],
            "type": "VEC3"
        },
        {
            "bufferView": 3,
            "byteOffset": 0,
            "componentType": 5126,
            "count": 1453,
            "max": [
                1.0,
                0.0,
                0.0,
                0.0
            ],
            "min": [
                1.0,
                0.0,
                0.0,
                0.0
            ],
            "type": "VEC4"
        },
        {
            "bufferView": 4,
            "byteOffset": 0,
            "componentType": 5126,
            "count": 2,
            "max": [
                1.0,
                0.0,
                0.0,
                0.0,
                0.0,
                1.0,
                0.0,
                0.0,
                0.0,
                0.0,
                1.0,
                0.0,
                0.0,
                0.0,
                0.0,
                1.0
            ],
            "min": [
                1.0,
                0.0,
                0.0,
                0.0,
                0.0,
                1.0,
                0.0,
                0.0,
                0.0,
                0.0,
                1.0,
                0.0,
                0.0,
                -2.3702449798583986,
                -3.7705230712890627,
                1.0
            ],
            "type": "MAT4"
        }
    ],
    "materials": [
        {
            "pbrMetallicRoughness": {
                "baseColorFactor": [
                    0.5292953252792358,
                    0.7337549328804016,
                    0.43412211537361147,
                    1.0
                ],
                "metallicFactor": 0.0
            },
            "emissiveFactor": [
                0.0,
                0.0,
                0.0
            ],
            "name": "models_weapons_w_scattergun_w_scattergun_bmp-effect"
        }
    ],
    "bufferViews": [
        {
            "buffer": 0,
            "byteOffset": 69872,
            "byteLength": 10266,
            "target": 34963
        },
        {
            "buffer": 0,
            "byteOffset": 58248,
            "byteLength": 11624,
            "byteStride": 8,
            "target": 34962
        },
        {
            "buffer": 0,
            "byteOffset": 23376,
            "byteLength": 34872,
            "byteStride": 12,
            "target": 34962
        },
        {
            "buffer": 0,
            "byteOffset": 128,
            "byteLength": 23248,
            "byteStride": 16,
            "target": 34962
        },
        {
            "buffer": 0,
            "byteOffset": 0,
            "byteLength": 128
        }
    ],
    "buffers": [
        {
            "byteLength": 80138,
            "uri": "data:application/octet-stream;base64,"
        }
    ]
}
