{
    "asset": {
        "generator": "COLLADA2GLTF",
        "version": "2.0"
    },
    "scenes": [
        {
            "nodes": [
                0
            ]
        }
    ],
    "scene": 0,
    "nodes": [
        {
            "children": [
                7,
                1
            ],
            "matrix": [
                1.0,
                0.0,
                0.0,
                0.0,
                0.0,
                0.0,
                -1.0,
                0.0,
                0.0,
                1.0,
                0.0,
                0.0,
                0.0,
                0.0,
                0.0,
                1.0
            ],
            "name": "Z_UP"
        },
        {
            "mesh": 0,
            "skin": 0,
            "name": "Dugtrio"
        },
        {
            "children": [
                3
            ],
            "matrix": [
                1.0,
                0.0,
                0.0,
                0.0,
                0.0,
                1.0,
                0.0,
                0.0,
                0.0,
                0.0,
                1.0,
                0.0,
                0.0,
                -0.4760721921920777,
                0.3081248700618744,
                1.0
            ],
            "name": "_05_SpineA1"
        },
        {
            "children": [
                4
            ],
            "matrix": [
                1.0,
                0.0,
                0.0,
                0.0,
                0.0,
                1.0,
                0.0,
                0.0,
                0.0,
                0.0,
                1.0,
                0.0,
                0.02494902350008488,
                0.0,
                0.0,
                1.0
            ],
            "name": "_06_SpineA2"
        },
        {
            "children": [
                5
            ],
            "name": "_07_SpineA3"
        },
        {
            "children": [
                6
            ],
            "matrix": [
                1.0,
                0.0,
                0.0,
                0.0,
                0.0,
                1.0,
                0.0,
                0.0,
                0.0,
                0.0,
                1.0,
                0.0,
                0.2813938856124878,
                0.0,
                4.844669021508708e-8,
                1.0
            ],
            "name": "_08_HeadA"
        },
        {
            "matrix": [
                -4.0185152982985537e-8,
                -0.000003617184574977728,
                1.0,
                0.0,
                -0.022216282784938813,
                -0.9997531771659852,
                -0.000003617184574977728,
                0.0,
                0.9997531771659852,
                -0.022216282784938813,
                -4.0185152982985537e-8,
                0.0,
                -0.0005779927014373243,
                2.906801341850951e-7,
                0.46735239028930666,
                1.0
            ],
            "name": "_10_FeelerA"
        },
        {
            "children": [
                8
            ],
            "matrix": [
                1.0,
                -0.0,
                0.0,
                0.0,
                0.0,
                4.4896641959724089e-11,
                1.0,
                0.0,
                -0.0,
                -1.0,
                4.4896641959724089e-11,
                0.0,
                0.0,
                0.0,
                0.0,
                1.0
            ],
            "name": "_01_pm0051_00"
        },
        {
            "children": [
                9
            ],
            "name": "_02_Origin"
        },
        {
            "children": [
                2,
                16,
                10
            ],
            "matrix": [
                -0.000003728380534084863,
                1.0,
                0.0,
                0.0,
                -1.0,
                -0.000003728380534084863,
                0.0,
                0.0,
                0.0,
                0.0,
                1.0,
                0.0,
                0.0,
                0.09381185472011566,
                0.0,
                1.0
            ],
            "name": "_03_Waist"
        },
        {
            "children": [
                11
            ],
            "matrix": [
                1.0,
                0.0,
                0.0,
                0.0,
                0.0,
                1.0,
                0.0,
                0.0,
                0.0,
                0.0,
                1.0,
                0.0,
                0.0,
                0.0,
                -0.5080000162124634,
                1.0
            ],
            "name": "_20_SpineC1"
        },
        {
            "children": [
                12
            ],
            "matrix": [
                1.0,
                0.0,
                0.0,
                0.0,
                0.0,
                1.0,
                0.0,
                0.0,
                0.0,
                0.0,
                1.0,
                0.0,
                0.02513667196035385,
                -6.93033887113996e-14,
                0.0,
                1.0
            ],
            "name": "_21_SpineC2"
        },
        {
            "children": [
                13
            ],
            "name": "_22_SpineC3"
        },
        {
            "children": [
                14
            ],
            "matrix": [
                1.0,
                0.0,
                0.0,
                0.0,
                0.0,
                1.0,
                0.0,
                0.0,
                0.0,
                0.0,
                1.0,
                0.0,
                0.5670219659805298,
                -7.854390965747471e-13,
                0.0,
                1.0
            ],
            "name": "_23_SpineC4"
        },
        {
            "children": [
                15
            ],
            "matrix": [
                1.0,
                0.0,
                0.0,
                0.0,
                0.0,
                1.0,
                0.0,
                0.0,
                0.0,
                0.0,
                1.0,
                0.0,
                0.5286044478416443,
                -3.696182357577904e-13,
                4.844669021508708e-8,
                1.0
            ],
            "name": "_24_HeadC"
        },
        {
            "matrix": [
                -1.4497699929449937e-8,
                -0.0000036651456412073459,
                1.0,
                0.0,
                -0.05387777835130692,
                -0.9985475540161132,
                -0.000003660603169919341,
                0.0,
                0.9985475540161132,
                -0.05387777835130692,
                -1.829932614327845e-7,
                0.0,
                -0.0005778716295026243,
                3.696182357577904e-13,
                0.4744313657283783,
                1.0
            ],
            "name": "_26_FeelerC"
        },
        {
            "children": [
                17
            ],
            "matrix": [
                1.0,
                0.0,
                0.0,
                0.0,
                0.0,
                1.0,
                0.0,
                0.0,
                0.0,
                0.0,
                1.0,
                0.0,
                0.0,
                0.4760721921920777,
                0.37613335251808169,
                1.0
            ],
            "name": "_12_SpineB1"
        },
        {
            "children": [
                18
            ],
            "matrix": [
                1.0,
                0.0,
                0.0,
                0.0,
                0.0,
                1.0,
                0.0,
                0.0,
                0.0,
                0.0,
                1.0,
                0.0,
                0.02513663843274117,
                0.0,
                0.0,
                1.0
            ],
            "name": "_13_SpineB2"
        },
        {
            "children": [
                19
            ],
            "name": "_14_SpineB3"
        },
        {
            "children": [
                20
            ],
            "matrix": [
                1.0,
                0.0,
                0.0,
                0.0,
                0.0,
                1.0,
                0.0,
                0.0,
                0.0,
                0.0,
                1.0,
                0.0,
                0.299229770898819,
                0.0,
                0.0,
                1.0
            ],
            "name": "_15_SpineB4"
        },
        {
            "children": [
                21
            ],
            "matrix": [
                1.0,
                0.0,
                0.0,
                0.0,
                0.0,
                1.0,
                0.0,
                0.0,
                0.0,
                0.0,
                1.0,
                0.0,
                0.3853002190589905,
                0.0,
                9.689338043017418e-8,
                1.0
            ],
            "name": "_16_HeadB"
        },
        {
            "matrix": [
                -4.0185152982985537e-8,
                -0.000003617184574977728,
                1.0,
                0.0,
                -0.022216282784938813,
                -0.9997531771659852,
                -0.000003617184574977728,
                0.0,
                0.9997531771659852,
                -0.022216282784938813,
                -4.0185152982985537e-8,
                0.0,
                -0.0016887534875422717,
                -2.422331988327642e-7,
                0.4751755893230438,
                1.0
            ],
            "name": "_18_FeelerB"
        }
    ],
    "meshes": [
        {
            "primitives": [
                {
                    "attributes": {
                        "COLOR_0": 1,
                        "JOINTS_0": 2,
                        "NORMAL": 3,
                        "POSITION": 4,
                        "TEXCOORD_0": 5,
                        "WEIGHTS_0": 6
                    },
                    "indices": 0,
                    "mode": 4,
                    "material": 0
                },
                {
                    "attributes": {
                        "COLOR_0": 8,
                        "JOINTS_0": 9,
                        "NORMAL": 10,
                        "POSITION": 11,
                        "TEXCOORD_0": 12,
                        "WEIGHTS_0": 13
                    },
                    "indices": 7,
                    "mode": 4,
                    "material": 1
                },
                {
                    "attributes": {
                        "COLOR_0": 15,
                        "JOINTS_0": 16,
                        "NORMAL": 17,
                        "POSITION": 18,
                        "TEXCOORD_0": 19,
                        "WEIGHTS_0": 20
                    },
                    "indices": 14,
                    "mode": 4,
                    "material": 2
                }
            ],
            "name": "Dugtrio"
        }
    ],
    "skins": [
        {
            "inverseBindMatrices": 21,
            "skeleton": 2,
            "joints": [
                18,
                19,
                20,
                17,
                12,
                13,
                14,
                11,
                4,
                5,
                15,
                6,
                21,
                3,
                2,
                16,
                10
            ],
            "name": "geom-Dugtrio-skin1"
        }
    ],
    "accessors": [
        {
            "bufferView": 0,
            "byteOffset": 0,
            "componentType": 5123,
            "count": 7716,
            "max": [
                1531
            ],
            "min": [
                0
            ],
            "type": "SCALAR"
        },
        {
            "bufferView": 1,
            "byteOffset": 0,
            "componentType": 5126,
            "count": 1532,
            "max": [
                1.0,
                1.0,
                1.0
            ],
            "min": [
                1.0,
                1.0,
                1.0
            ],
            "type": "VEC3"
        },
        {
            "bufferView": 2,
            "byteOffset": 0,
            "componentType": 5123,
            "count": 1532,
            "max": [
                13,
                11,
                13,
                7
            ],
            "min": [
                0,
                0,
                0,
                0
            ],
            "type": "VEC4"
        },
        {
            "bufferView": 1,
            "byteOffset": 18384,
            "componentType": 5126,
            "count": 1532,
            "max": [
                1.0,
                1.0,
                1.0
            ],
            "min": [
                -1.0,
                -0.9887930750846864,
                -1.0
            ],
            "type": "VEC3"
        },
        {
            "bufferView": 1,
            "byteOffset": 36768,
            "componentType": 5126,
            "count": 1532,
            "max": [
                0.9686239361763,
                1.7812460660934449,
                0.9964473247528076
            ],
            "min": [
                -0.9723221063613892,
                0.01716316118836403,
                -1.0078694820404053
            ],
            "type": "VEC3"
        },
        {
            "bufferView": 2,
            "byteOffset": 12256,
            "componentType": 5126,
            "count": 1532,
            "max": [
                0.9513630270957948,
                0.9883559942245485
            ],
            "min": [
                0.01052279956638813,
                0.006475985050201416
            ],
            "type": "VEC2"
        },
        {
            "bufferView": 3,
            "byteOffset": 0,
            "componentType": 5126,
            "count": 1532,
            "max": [
                1.0,
                0.9900000095367432,
                0.8399999737739563,
                0.3199999928474426
            ],
            "min": [
                0.009999999776482582,
                0.0,
                0.0,
                0.0
            ],
            "type": "VEC4"
        },
        {
            "bufferView": 0,
            "byteOffset": 15432,
            "componentType": 5123,
            "count": 324,
            "max": [
                83
            ],
            "min": [
                0
            ],
            "type": "SCALAR"
        },
        {
            "bufferView": 1,
            "byteOffset": 55152,
            "componentType": 5126,
            "count": 84,
            "max": [
                1.0,
                1.0,
                1.0
            ],
            "min": [
                1.0,
                1.0,
                1.0
            ],
            "type": "VEC3"
        },
        {
            "bufferView": 2,
            "byteOffset": 24512,
            "componentType": 5123,
            "count": 84,
            "max": [
                9,
                9,
                6,
                0
            ],
            "min": [
                0,
                0,
                0,
                0
            ],
            "type": "VEC4"
        },
        {
            "bufferView": 1,
            "byteOffset": 56160,
            "componentType": 5126,
            "count": 84,
            "max": [
                0.5261968970298767,
                0.5774978995323181,
                0.9990236163139344
            ],
            "min": [
                -0.5261968970298767,
                0.044178809970617297,
                0.7030202746391296
            ],
            "type": "VEC3"
        },
        {
            "bufferView": 1,
            "byteOffset": 57168,
            "componentType": 5126,
            "count": 84,
            "max": [
                0.7579766511917114,
                1.5695548057556153,
                0.8722741007804871
            ],
            "min": [
                -0.7613878846168518,
                0.4822748601436615,
                -0.15898573398590089
            ],
            "type": "VEC3"
        },
        {
            "bufferView": 2,
            "byteOffset": 25184,
            "componentType": 5126,
            "count": 84,
            "max": [
                0.4870559871196747,
                -1.754729986190796
            ],
            "min": [
                0.012943699955940249,
                -1.991689920425415
            ],
            "type": "VEC2"
        },
        {
            "bufferView": 3,
            "byteOffset": 24512,
            "componentType": 5126,
            "count": 84,
            "max": [
                1.0,
                0.949999988079071,
                0.8399999737739563,
                0.0
            ],
            "min": [
                0.009999999776482582,
                0.0,
                0.0,
                0.0
            ],
            "type": "VEC4"
        },
        {
            "bufferView": 0,
            "byteOffset": 16080,
            "componentType": 5123,
            "count": 7170,
            "max": [
                1578
            ],
            "min": [
                0
            ],
            "type": "SCALAR"
        },
        {
            "bufferView": 1,
            "byteOffset": 58176,
            "componentType": 5126,
            "count": 1579,
            "max": [
                1.0,
                1.0,
                1.0
            ],
            "min": [
                1.0,
                1.0,
                1.0
            ],
            "type": "VEC3"
        },
        {
            "bufferView": 2,
            "byteOffset": 25856,
            "componentType": 5123,
            "count": 1579,
            "max": [
                16,
                0,
                0,
                0
            ],
            "min": [
                14,
                0,
                0,
                0
            ],
            "type": "VEC4"
        },
        {
            "bufferView": 1,
            "byteOffset": 77124,
            "componentType": 5126,
            "count": 1579,
            "max": [
                0.9952415227890016,
                1.0,
                0.9720826148986816
            ],
            "min": [
                -0.9915717840194702,
                -1.0,
                -0.9961146712303162
            ],
            "type": "VEC3"
        },
        {
            "bufferView": 1,
            "byteOffset": 96072,
            "componentType": 5126,
            "count": 1579,
            "max": [
                1.2775945663452149,
                0.2876397669315338,
                1.2120803594589234
            ],
            "min": [
                -1.2981559038162232,
                -0.0017683337209746242,
                -1.3458291292190552
            ],
            "type": "VEC3"
        },
        {
            "bufferView": 2,
            "byteOffset": 38488,
            "componentType": 5126,
            "count": 1579,
            "max": [
                0.9916930198669434,
                -0.008559942245483399
            ],
            "min": [
                0.008574600331485272,
                -0.990470051765442
            ],
            "type": "VEC2"
        },
        {
            "bufferView": 3,
            "byteOffset": 25856,
            "componentType": 5126,
            "count": 1579,
            "max": [
                1.0,
                0.0,
                0.0,
                0.0
            ],
            "min": [
                1.0,
                0.0,
                0.0,
                0.0
            ],
            "type": "VEC4"
        },
        {
            "bufferView": 4,
            "byteOffset": 0,
            "componentType": 5126,
            "count": 17,
            "max": [
                0.0,
                1.0,
                4.007399880684437e-12,
                0.0,
                1.0,
                0.008331557735800743,
                1.0,
                0.0,
                1.0,
                1.7516905271533124e-19,
                1.0,
                0.0,
                1.3215980529785157,
                18.74308967590332,
                20.0,
                1.0
            ],
            "min": [
                0.0,
                -1.0,
                -0.008331558667123318,
                0.0,
                4.3711395392165289e-8,
                -4.007399880684437e-12,
                4.371139894487897e-8,
                0.0,
                -4.371139894487897e-8,
                -3.641840440327115e-10,
                -4.371139894487897e-8,
                0.0,
                -47.817909240722659,
                -18.743099212646489,
                -47.79349899291992,
                1.0
            ],
            "type": "MAT4"
        }
    ],
    "materials": [
        {
            "pbrMetallicRoughness": {
                "baseColorFactor": [
                    1.0,
                    1.0,
                    1.0,
                    1.0
                ],
                "baseColorTexture": {
                    "index": 0
                },
                "metallicFactor": 0.0
            },
            "emissiveFactor": [
                0.0,
                0.0,
                0.0
            ],
            "occlusionTexture": {
                "index": 0
            },
            "name": "BodyA00"
        },
        {
            "pbrMetallicRoughness": {
                "baseColorFactor": [
                    1.0,
                    1.0,
                    1.0,
                    1.0
                ],
                "baseColorTexture": {
                    "index": 1
                },
                "metallicFactor": 0.0
            },
            "emissiveFactor": [
                0.0,
                0.0,
                0.0
            ],
            "occlusionTexture": {
                "index": 1
            },
            "name": "Eye00"
        },
        {
            "pbrMetallicRoughness": {
                "baseColorFactor": [
                    1.0,
                    1.0,
                    1.0,
                    1.0
                ],
                "baseColorTexture": {
                    "index": 2
                },
                "metallicFactor": 0.0
            },
            "emissiveFactor": [
                0.0,
                0.0,
                0.0
            ],
            "occlusionTexture": {
                "index": 2
            },
            "name": "BodyB"
        }
    ],
    "textures": [
        {
            "sampler": 0,
            "source": 0
        },
        {
            "sampler": 0,
            "source": 1
        },
        {
            "sampler": 0,
            "source": 2
        }
    ],
    "images": [
        {
            "uri": "data:image/png;base64,"
        },
        {
            "uri": "data:image/png;base64,"
        },
        {
            "uri": "data:image/png;base64,"
        }
    ],
    "samplers": [
        {
            "magFilter": 9729,
            "minFilter": 9986,
            "wrapS": 10497,
            "wrapT": 10497
        }
    ],
    "bufferViews": [
        {
            "buffer": 0,
            "byteOffset": 218348,
            "byteLength": 30420,
            "target": 34963
        },
        {
            "buffer": 0,
            "byteOffset": 52208,
            "byteLength": 115020,
            "byteStride": 12,
            "target": 34962
        },
        {
            "buffer": 0,
            "byteOffset": 167228,
            "byteLength": 51120,
            "byteStride": 8,
            "target": 34962
        },
        {
            "buffer": 0,
            "byteOffset": 1088,
            "byteLength": 51120,
            "byteStride": 16,
            "target": 34962
        },
        {
            "buffer": 0,
            "byteOffset": 0,
            "byteLength": 1088
        }
    ],
    "buffers": [
        {
            "byteLength": 248768,
            "uri": "data:application/octet-stream;base64,"
        }
    ]
}
