{
    "asset": {
        "generator": "COLLADA2GLTF",
        "version": "2.0"
    },
    "scenes": [
        {
            "nodes": [
                0
            ]
        }
    ],
    "scene": 0,
    "nodes": [
        {
            "children": [
                8,
                1
            ],
            "matrix": [
                1.0,
                0.0,
                0.0,
                0.0,
                0.0,
                0.0,
                -1.0,
                0.0,
                0.0,
                1.0,
                0.0,
                0.0,
                0.0,
                0.0,
                0.0,
                1.0
            ],
            "name": "Z_UP"
        },
        {
            "mesh": 0,
            "skin": 0,
            "name": "Diglett"
        },
        {
            "children": [
                3
            ],
            "matrix": [
                -0.000003728380534084863,
                1.0,
                0.0,
                0.0,
                -1.0,
                -0.000003728380534084863,
                0.0,
                0.0,
                0.0,
                0.0,
                1.0,
                0.0,
                0.0,
                0.05073142051696777,
                0.0,
                1.0
            ],
            "name": "_03_Waist"
        },
        {
            "children": [
                4
            ],
            "matrix": [
                1.0,
                0.0,
                0.0,
                0.0,
                0.0,
                1.0,
                0.0,
                0.0,
                0.0,
                0.0,
                1.0,
                0.0,
                0.014617497101426125,
                -1.1550573255562739e-14,
                0.0,
                1.0
            ],
            "name": "_04_Spine1"
        },
        {
            "children": [
                5
            ],
            "name": "_05_Spine2"
        },
        {
            "children": [
                6
            ],
            "matrix": [
                1.0,
                0.0,
                0.0,
                0.0,
                0.0,
                1.0,
                0.0,
                0.0,
                0.0,
                0.0,
                1.0,
                0.0,
                0.09671255201101305,
                4.620234723235959e-14,
                -1.804779188764046e-16,
                1.0
            ],
            "name": "_06_Spine3"
        },
        {
            "children": [
                7
            ],
            "matrix": [
                1.0,
                0.0,
                0.0,
                0.0,
                0.0,
                1.0,
                0.0,
                0.0,
                0.0,
                0.0,
                1.0,
                0.0,
                0.11557096242904665,
                4.620234723235959e-14,
                -7.219111461100264e-16,
                1.0
            ],
            "name": "_07_Head"
        },
        {
            "matrix": [
                -4.0185152982985537e-8,
                -0.000003617184574977728,
                1.0,
                0.0,
                -0.022216282784938813,
                -0.9997531771659852,
                -0.000003617184574977728,
                0.0,
                0.9997531771659852,
                -0.022216282784938813,
                -4.0185152982985537e-8,
                0.0,
                0.0,
                0.0,
                0.18767043948173524,
                1.0
            ],
            "name": "_09_Nose"
        },
        {
            "children": [
                9
            ],
            "matrix": [
                1.0,
                -0.0,
                0.0,
                0.0,
                0.0,
                4.4896641959724089e-11,
                1.0,
                0.0,
                -0.0,
                -1.0,
                4.4896641959724089e-11,
                0.0,
                0.0,
                0.0,
                0.0,
                1.0
            ],
            "name": "_01_pm0050_00"
        },
        {
            "children": [
                2
            ],
            "name": "_02_Origin"
        }
    ],
    "meshes": [
        {
            "primitives": [
                {
                    "attributes": {
                        "COLOR_0": 1,
                        "JOINTS_0": 2,
                        "NORMAL": 3,
                        "POSITION": 4,
                        "TEXCOORD_0": 5,
                        "WEIGHTS_0": 6
                    },
                    "indices": 0,
                    "mode": 4,
                    "material": 0
                },
                {
                    "attributes": {
                        "COLOR_0": 8,
                        "JOINTS_0": 9,
                        "NORMAL": 10,
                        "POSITION": 11,
                        "TEXCOORD_0": 12,
                        "WEIGHTS_0": 13
                    },
                    "indices": 7,
                    "mode": 4,
                    "material": 1
                }
            ],
            "name": "Diglett"
        }
    ],
    "skins": [
        {
            "inverseBindMatrices": 14,
            "skeleton": 2,
            "joints": [
                4,
                5,
                6,
                3,
                7,
                2
            ],
            "name": "geom-Diglett-skin1"
        }
    ],
    "accessors": [
        {
            "bufferView": 0,
            "byteOffset": 0,
            "componentType": 5123,
            "count": 5412,
            "max": [
                1113
            ],
            "min": [
                0
            ],
            "type": "SCALAR"
        },
        {
            "bufferView": 1,
            "byteOffset": 0,
            "componentType": 5126,
            "count": 1114,
            "max": [
                1.0,
                1.0,
                1.0
            ],
            "min": [
                1.0,
                1.0,
                1.0
            ],
            "type": "VEC3"
        },
        {
            "bufferView": 2,
            "byteOffset": 0,
            "componentType": 5123,
            "count": 1114,
            "max": [
                5,
                4,
                3,
                3
            ],
            "min": [
                0,
                0,
                0,
                0
            ],
            "type": "VEC4"
        },
        {
            "bufferView": 1,
            "byteOffset": 13368,
            "componentType": 5126,
            "count": 1114,
            "max": [
                1.0,
                1.0,
                1.0
            ],
            "min": [
                -1.0,
                -1.0,
                -0.9964964985847472
            ],
            "type": "VEC3"
        },
        {
            "bufferView": 1,
            "byteOffset": 26736,
            "componentType": 5126,
            "count": 1114,
            "max": [
                0.36511990427970889,
                0.5082793831825256,
                0.35470083355903628
            ],
            "min": [
                -0.3527628183364868,
                -0.00002803098141157534,
                -0.3558031916618347
            ],
            "type": "VEC3"
        },
        {
            "bufferView": 2,
            "byteOffset": 8912,
            "componentType": 5126,
            "count": 1114,
            "max": [
                0.991307020187378,
                0.9913102388381958
            ],
            "min": [
                0.009768320247530938,
                0.007242023944854736
            ],
            "type": "VEC2"
        },
        {
            "bufferView": 3,
            "byteOffset": 0,
            "componentType": 5126,
            "count": 1114,
            "max": [
                1.0,
                0.959999978542328,
                0.959999978542328,
                0.10000000149011612
            ],
            "min": [
                0.029999999329447748,
                0.0,
                0.0,
                0.0
            ],
            "type": "VEC4"
        },
        {
            "bufferView": 0,
            "byteOffset": 10824,
            "componentType": 5123,
            "count": 108,
            "max": [
                27
            ],
            "min": [
                0
            ],
            "type": "SCALAR"
        },
        {
            "bufferView": 1,
            "byteOffset": 40104,
            "componentType": 5126,
            "count": 28,
            "max": [
                1.0,
                1.0,
                1.0
            ],
            "min": [
                1.0,
                1.0,
                1.0
            ],
            "type": "VEC3"
        },
        {
            "bufferView": 2,
            "byteOffset": 17824,
            "componentType": 5123,
            "count": 28,
            "max": [
                2,
                1,
                2,
                0
            ],
            "min": [
                0,
                0,
                0,
                0
            ],
            "type": "VEC4"
        },
        {
            "bufferView": 1,
            "byteOffset": 40440,
            "componentType": 5126,
            "count": 28,
            "max": [
                0.42903879284858706,
                0.4640583992004395,
                0.994342029094696
            ],
            "min": [
                -0.42903879284858706,
                0.10622580349445345,
                0.8060324788093567
            ],
            "type": "VEC3"
        },
        {
            "bufferView": 1,
            "byteOffset": 40776,
            "componentType": 5126,
            "count": 28,
            "max": [
                0.11153572052717208,
                0.4264482259750366,
                0.19334708154201508
            ],
            "min": [
                -0.11153572052717208,
                0.316092848777771,
                0.13842721283435822
            ],
            "type": "VEC3"
        },
        {
            "bufferView": 2,
            "byteOffset": 18048,
            "componentType": 5126,
            "count": 28,
            "max": [
                0.4918205142021179,
                -0.760890007019043
            ],
            "min": [
                0.0,
                -0.9911600351333618
            ],
            "type": "VEC2"
        },
        {
            "bufferView": 3,
            "byteOffset": 17824,
            "componentType": 5126,
            "count": 28,
            "max": [
                1.0,
                0.1899999976158142,
                0.959999978542328,
                0.0
            ],
            "min": [
                0.029999999329447748,
                0.0,
                0.0,
                0.0
            ],
            "type": "VEC4"
        },
        {
            "bufferView": 4,
            "byteOffset": 0,
            "componentType": 5126,
            "count": 6,
            "max": [
                0.0,
                1.0,
                4.007399880684437e-12,
                0.0,
                1.0,
                0.0,
                1.0,
                0.0,
                1.0,
                1.7516905271533124e-19,
                1.0,
                0.0,
                -1.9973000288009644,
                0.0000330121984006837,
                0.0,
                1.0
            ],
            "min": [
                0.0,
                -1.0,
                0.0,
                0.0,
                4.371139894487897e-8,
                -4.007399880684437e-12,
                4.371139894487897e-8,
                0.0,
                -4.371139894487897e-8,
                0.0,
                -4.371139894487897e-8,
                0.0,
                -10.930410385131836,
                -0.0000330121984006837,
                -10.930410385131836,
                1.0
            ],
            "type": "MAT4"
        }
    ],
    "materials": [
        {
            "pbrMetallicRoughness": {
                "baseColorFactor": [
                    1.0,
                    1.0,
                    1.0,
                    1.0
                ],
                "baseColorTexture": {
                    "index": 0
                },
                "metallicFactor": 0.0
            },
            "emissiveFactor": [
                0.0,
                0.0,
                0.0
            ],
            "occlusionTexture": {
                "index": 0
            },
            "name": "Body00"
        },
        {
            "pbrMetallicRoughness": {
                "baseColorFactor": [
                    1.0,
                    1.0,
                    1.0,
                    1.0
                ],
                "baseColorTexture": {
                    "index": 1
                },
                "metallicFactor": 0.0
            },
            "emissiveFactor": [
                0.0,
                0.0,
                0.0
            ],
            "occlusionTexture": {
                "index": 1
            },
            "name": "Eye"
        }
    ],
    "textures": [
        {
            "sampler": 0,
            "source": 0
        },
        {
            "sampler": 0,
            "source": 1
        }
    ],
    "images": [
        {
            "uri": "data:image/png;base64,"
        },
        {
            "uri": "data:image/png;base64,"
        }
    ],
    "samplers": [
        {
            "magFilter": 9729,
            "minFilter": 9986,
            "wrapS": 10497,
            "wrapT": 10497
        }
    ],
    "bufferViews": [
        {
            "buffer": 0,
            "byteOffset": 78040,
            "byteLength": 11040,
            "target": 34963
        },
        {
            "buffer": 0,
            "byteOffset": 18656,
            "byteLength": 41112,
            "byteStride": 12,
            "target": 34962
        },
        {
            "buffer": 0,
            "byteOffset": 59768,
            "byteLength": 18272,
            "byteStride": 8,
            "target": 34962
        },
        {
            "buffer": 0,
            "byteOffset": 384,
            "byteLength": 18272,
            "byteStride": 16,
            "target": 34962
        },
        {
            "buffer": 0,
            "byteOffset": 0,
            "byteLength": 384
        }
    ],
    "buffers": [
        {
            "byteLength": 89080,
            "uri": "data:application/octet-stream;base64,"
        }
    ]
}
